<!DOCTYPE svg PUBLIC "-//W3C//DTD SVG 1.1//EN" "http://www.w3.org/Graphics/SVG/1.1/DTD/svg11.dtd">
<!-- Uploaded to: SVG Repo, www.svgrepo.com, Transformed by: SVG Repo Mixer Tools -->
<svg width="800px" height="800px" viewBox="0 0 32 32" fill="none" xmlns="http://www.w3.org/2000/svg" stroke="#ffffff">
<g id="SVGRepo_bgCarrier" stroke-width="0"/>
<g id="SVGRepo_tracerCarrier" stroke-linecap="round" stroke-linejoin="round"/>
<g id="SVGRepo_iconCarrier"> <g clip-path="url(#clip0_901_1613)"> <path d="M28 28C28 26.344 26.656 25 25 25C23.344 25 22 26.344 22 28C22 29.656 23.344 31 25 31C26.656 31 28 29.656 28 28ZM28 28H31V19C31 18 30 17 29 17M11 28C11 26.344 9.656 25 8 25C6.344 25 5 26.344 5 28C5 29.656 6.344 31 8 31C9.656 31 11 29.656 11 28ZM11 28H19V2C19 1.484 18.515 1 18 1H3C1.656 1 0.797 1.344 1.078 3L2 9M29 17H22M29 17L28 6C27.906 5.266 27.531 5 27 5H22M8 16H2M9 20H3M7 12H1" stroke="#ffffff" stroke-width="2" stroke-linecap="round" stroke-linejoin="round"/> </g> <defs> <clipPath id="clip0_901_1613"> <rect width="32" height="32" fill="white"/> </clipPath> </defs> </g>
</svg>